<?xml version="1.0" standalone="no"?>
<!DOCTYPE svg PUBLIC "-//W3C//DTD SVG 20010904//EN"
 "http://www.w3.org/TR/2001/REC-SVG-20010904/DTD/svg10.dtd">
<svg version="1.0" xmlns="http://www.w3.org/2000/svg"
 width="254.000000pt" height="405.000000pt" viewBox="0 0 254.000000 405.000000"
 preserveAspectRatio="xMidYMid meet">

<g transform="translate(0.000000,405.000000) scale(0.100000,-0.100000)"
fill="currentColor" stroke="currentColor">
<path d="M611 3909 c-240 -47 -410 -196 -487 -429 -18 -52 -19 -126 -22 -1470
-2 -1023 0 -1434 9 -1483 31 -186 174 -345 353 -393 62 -17 186 -18 258 -3
159 34 291 159 351 333 7 19 13 202 16 468 6 423 7 437 27 465 11 15 36 38 54
51 32 21 39 22 309 22 152 0 310 5 351 10 207 27 375 188 398 383 22 184 -51
353 -192 442 -112 70 -106 69 -491 75 -393 6 -392 6 -434 80 -19 34 -21 54
-21 218 0 192 5 220 48 266 56 60 57 60 532 66 477 6 469 5 571 71 55 35 130
112 154 159 81 157 74 339 -19 485 -53 82 -128 136 -244 176 -52 18 -93 19
-766 18 -391 -1 -731 -5 -755 -10z"/>
</g>
</svg>
