<?xml version="1.0" standalone="no"?>
<!DOCTYPE svg PUBLIC "-//W3C//DTD SVG 20010904//EN"
 "http://www.w3.org/TR/2001/REC-SVG-20010904/DTD/svg10.dtd">
<svg version="1.0" xmlns="http://www.w3.org/2000/svg"
 width="371.000000pt" height="412.000000pt" viewBox="0 0 371.000000 412.000000"
 preserveAspectRatio="xMidYMid meet">

<g transform="translate(0.000000,412.000000) scale(0.100000,-0.100000)"
fill="currentColor" stroke="none">
<path d="M1525 4034 c-174 -19 -408 -85 -549 -156 -513 -257 -877 -816 -853
-1308 11 -228 89 -400 247 -542 68 -62 193 -129 285 -154 88 -24 283 -29 371
-11 281 60 497 256 593 538 51 150 65 257 66 528 l1 243 27 24 c39 33 77 31
113 -7 l29 -30 0 -257 c0 -206 -4 -275 -18 -347 -51 -252 -155 -454 -311 -603
-88 -83 -143 -122 -239 -167 -132 -63 -210 -78 -402 -79 -145 0 -182 3 -250
21 -90 25 -211 73 -260 103 -18 11 -38 20 -44 20 -9 0 -11 -164 -9 -667 l3
-668 23 -58 c44 -109 140 -205 249 -248 57 -23 65 -24 458 -27 428 -4 481 1
568 44 97 50 178 147 212 254 15 46 18 102 20 341 2 316 8 354 62 466 63 130
196 231 360 274 63 17 126 22 323 29 272 9 362 25 519 93 351 152 575 504 531
835 -30 228 -139 363 -400 498 -131 68 -223 160 -315 314 -166 281 -324 436
-570 557 -203 100 -383 142 -630 147 -93 2 -188 2 -210 0z m1002 -899 c50 -21
72 -42 94 -90 36 -79 14 -178 -49 -224 -45 -31 -111 -45 -160 -32 -84 23 -132
90 -132 183 0 129 127 213 247 163z"/>
</g>
</svg>
